<svg xmlns="http://www.w3.org/2000/svg" xmlns:xlink="http://www.w3.org/1999/xlink" preserveAspectRatio="xMidYMid" width="318" height="318" viewBox="0 0 318 318">
  <defs>
    <style>
      .cls-1 {
        fill: #319795;
        fill-rule: evenodd;
      }
    </style>
  </defs>
  <path d="M102.000,313.000 C99.796,308.534 98.556,281.896 102.403,255.299 C104.423,241.332 110.433,159.057 112.000,124.000 C113.567,88.943 112.706,76.971 113.000,52.000 C113.294,27.029 115.222,14.204 116.000,9.000 C116.778,3.796 118.000,0.000 118.000,0.000 L212.000,4.000 C212.000,4.000 209.238,27.215 209.000,43.000 C208.762,58.785 205.881,129.151 205.000,141.000 C204.119,152.849 204.133,191.423 202.481,215.785 C200.840,239.978 195.155,279.272 194.892,288.956 C194.570,300.823 192.704,312.268 193.000,318.000 C183.645,317.310 170.168,296.077 163.191,284.163 C157.913,275.150 155.000,271.000 155.000,271.000 C156.561,269.696 130.854,286.082 115.786,299.794 C108.654,306.285 102.000,313.000 102.000,313.000 Z" class="cls-1"/>
</svg>
